<mxfile host="app.diagrams.net" modified="2022-10-27T21:34:57.954Z" agent="5.0 (Windows)" etag="QRmc889AC-eRxivYlvES" version="20.5.1" type="github">
  <diagram id="eTSygeNkUkZCXjieX9IA" name="Page-1">
    <mxGraphModel dx="1038" dy="556" grid="1" gridSize="10" guides="1" tooltips="1" connect="1" arrows="1" fold="1" page="1" pageScale="1" pageWidth="850" pageHeight="1100" math="0" shadow="0">
      <root>
        <mxCell id="0" />
        <mxCell id="1" parent="0" />
        <mxCell id="bQdGpcI2RfN3uaBxpqX3-2" value="Drink" style="swimlane;fontStyle=0;childLayout=stackLayout;horizontal=1;startSize=30;horizontalStack=0;resizeParent=1;resizeParentMax=0;resizeLast=0;collapsible=1;marginBottom=0;" parent="1" vertex="1">
          <mxGeometry x="310" y="50" width="140" height="130" as="geometry" />
        </mxCell>
        <mxCell id="bQdGpcI2RfN3uaBxpqX3-3" value="-char size&#xa;-boolean hot&#xa;-String milkType&#xa;" style="text;strokeColor=none;fillColor=none;align=left;verticalAlign=middle;spacingLeft=4;spacingRight=4;overflow=hidden;points=[[0,0.5],[1,0.5]];portConstraint=eastwest;rotatable=0;" parent="bQdGpcI2RfN3uaBxpqX3-2" vertex="1">
          <mxGeometry y="30" width="140" height="100" as="geometry" />
        </mxCell>
        <mxCell id="bQdGpcI2RfN3uaBxpqX3-6" value="Tea" style="swimlane;fontStyle=0;childLayout=stackLayout;horizontal=1;startSize=30;horizontalStack=0;resizeParent=1;resizeParentMax=0;resizeLast=0;collapsible=1;marginBottom=0;" parent="1" vertex="1">
          <mxGeometry x="160" y="250" width="140" height="90" as="geometry" />
        </mxCell>
        <mxCell id="bQdGpcI2RfN3uaBxpqX3-7" value="-String teaType" style="text;strokeColor=none;fillColor=none;align=left;verticalAlign=middle;spacingLeft=4;spacingRight=4;overflow=hidden;points=[[0,0.5],[1,0.5]];portConstraint=eastwest;rotatable=0;" parent="bQdGpcI2RfN3uaBxpqX3-6" vertex="1">
          <mxGeometry y="30" width="140" height="30" as="geometry" />
        </mxCell>
        <mxCell id="bQdGpcI2RfN3uaBxpqX3-8" value="-boolean lemon" style="text;strokeColor=none;fillColor=none;align=left;verticalAlign=middle;spacingLeft=4;spacingRight=4;overflow=hidden;points=[[0,0.5],[1,0.5]];portConstraint=eastwest;rotatable=0;" parent="bQdGpcI2RfN3uaBxpqX3-6" vertex="1">
          <mxGeometry y="60" width="140" height="30" as="geometry" />
        </mxCell>
        <mxCell id="bQdGpcI2RfN3uaBxpqX3-12" value="IS-A" style="endArrow=classic;html=1;rounded=0;exitX=0.462;exitY=-0.011;exitDx=0;exitDy=0;exitPerimeter=0;entryX=0.381;entryY=1.023;entryDx=0;entryDy=0;entryPerimeter=0;" parent="1" source="bQdGpcI2RfN3uaBxpqX3-6" target="bQdGpcI2RfN3uaBxpqX3-3" edge="1">
          <mxGeometry relative="1" as="geometry">
            <mxPoint x="379.02" y="143" as="sourcePoint" />
            <mxPoint x="250" y="170" as="targetPoint" />
          </mxGeometry>
        </mxCell>
        <mxCell id="bQdGpcI2RfN3uaBxpqX3-14" value="Coffee" style="swimlane;fontStyle=0;childLayout=stackLayout;horizontal=1;startSize=30;horizontalStack=0;resizeParent=1;resizeParentMax=0;resizeLast=0;collapsible=1;marginBottom=0;" parent="1" vertex="1">
          <mxGeometry x="490" y="250" width="140" height="90" as="geometry" />
        </mxCell>
        <mxCell id="bQdGpcI2RfN3uaBxpqX3-15" value="-String roast" style="text;strokeColor=none;fillColor=none;align=left;verticalAlign=middle;spacingLeft=4;spacingRight=4;overflow=hidden;points=[[0,0.5],[1,0.5]];portConstraint=eastwest;rotatable=0;" parent="bQdGpcI2RfN3uaBxpqX3-14" vertex="1">
          <mxGeometry y="30" width="140" height="30" as="geometry" />
        </mxCell>
        <mxCell id="bQdGpcI2RfN3uaBxpqX3-16" value="-boolean decaf" style="text;strokeColor=none;fillColor=none;align=left;verticalAlign=middle;spacingLeft=4;spacingRight=4;overflow=hidden;points=[[0,0.5],[1,0.5]];portConstraint=eastwest;rotatable=0;" parent="bQdGpcI2RfN3uaBxpqX3-14" vertex="1">
          <mxGeometry y="60" width="140" height="30" as="geometry" />
        </mxCell>
        <mxCell id="bQdGpcI2RfN3uaBxpqX3-24" value="" style="endArrow=classic;html=1;rounded=0;exitX=0.483;exitY=-0.035;exitDx=0;exitDy=0;exitPerimeter=0;entryX=0.518;entryY=1.044;entryDx=0;entryDy=0;entryPerimeter=0;" parent="1" source="bQdGpcI2RfN3uaBxpqX3-14" target="bQdGpcI2RfN3uaBxpqX3-3" edge="1">
          <mxGeometry relative="1" as="geometry">
            <mxPoint x="382.94000000000005" y="143.99" as="sourcePoint" />
            <mxPoint x="550" y="160" as="targetPoint" />
          </mxGeometry>
        </mxCell>
        <mxCell id="bQdGpcI2RfN3uaBxpqX3-25" value="IS-A" style="edgeLabel;resizable=0;html=1;align=center;verticalAlign=middle;" parent="bQdGpcI2RfN3uaBxpqX3-24" connectable="0" vertex="1">
          <mxGeometry relative="1" as="geometry" />
        </mxCell>
        <mxCell id="bQdGpcI2RfN3uaBxpqX3-28" value="List" style="swimlane;fontStyle=0;childLayout=stackLayout;horizontal=1;startSize=30;horizontalStack=0;resizeParent=1;resizeParentMax=0;resizeLast=0;collapsible=1;marginBottom=0;" parent="1" vertex="1">
          <mxGeometry x="330" y="350" width="140" height="120" as="geometry" />
        </mxCell>
        <mxCell id="bQdGpcI2RfN3uaBxpqX3-29" value="Item 1" style="text;strokeColor=none;fillColor=none;align=left;verticalAlign=middle;spacingLeft=4;spacingRight=4;overflow=hidden;points=[[0,0.5],[1,0.5]];portConstraint=eastwest;rotatable=0;" parent="bQdGpcI2RfN3uaBxpqX3-28" vertex="1">
          <mxGeometry y="30" width="140" height="30" as="geometry" />
        </mxCell>
        <mxCell id="bQdGpcI2RfN3uaBxpqX3-30" value="Item 2" style="text;strokeColor=none;fillColor=none;align=left;verticalAlign=middle;spacingLeft=4;spacingRight=4;overflow=hidden;points=[[0,0.5],[1,0.5]];portConstraint=eastwest;rotatable=0;" parent="bQdGpcI2RfN3uaBxpqX3-28" vertex="1">
          <mxGeometry y="60" width="140" height="30" as="geometry" />
        </mxCell>
        <mxCell id="bQdGpcI2RfN3uaBxpqX3-31" value="Item 3" style="text;strokeColor=none;fillColor=none;align=left;verticalAlign=middle;spacingLeft=4;spacingRight=4;overflow=hidden;points=[[0,0.5],[1,0.5]];portConstraint=eastwest;rotatable=0;" parent="bQdGpcI2RfN3uaBxpqX3-28" vertex="1">
          <mxGeometry y="90" width="140" height="30" as="geometry" />
        </mxCell>
      </root>
    </mxGraphModel>
  </diagram>
</mxfile>
